<!-- src/components/sun-icon.svg -->
<svg viewBox="0 0 24 24" fill="currentColor" xmlns="http://www.w3.org/2000/svg">
  <path d="M12 4.5C12.8284 4.5 13.5 3.82843 13.5 3V1.5C13.5 0.671573 12.8284 0 12 0C11.1716 0 10.5 0.671573 10.5 1.5V3C10.5 3.82843 11.1716 4.5 12 4.5ZM6.22222 6.22222C6.69657 5.74787 6.69657 4.95397 6.22222 4.47963L4.47963 6.22222C4.00528 6.69657 3.21138 6.69657 2.73704 6.22222L4.47963 4.47963C4.95397 4.00528 4.95397 3.21138 4.47963 2.73704L6.22222 4.47963C6.69657 4.95397 6.69657 4.00528 6.22222 3.53094L4.47963 2.73704C4.00528 2.2627 3.21138 2.2627 2.73704 2.73704L3.53094 4.47963C4.00528 4.95397 4.00528 5.74787 3.53094 6.22222ZM12 16.5C10.067 16.5 8.5 14.933 8.5 13C8.5 11.067 10.067 9.5 12 9.5C13.933 9.5 15.5 11.067 15.5 13C15.5 14.933 13.933 16.5 12 16.5ZM17.7778 17.7778C18.2521 17.3034 19.046 17.3034 19.5204 17.7778L17.7778 19.5204C17.3034 18.2521 17.3034 18.2521 17.7778 18.2521L19.5204 17.7778C18.2521 18.2521 17.3034 18.2521 16.8288 17.7778L17.7778 18.2521ZM19.5 12C19.5 12.8284 18.8284 13.5 18 13.5H16.5C15.6716 13.5 15 12.8284 15 12C15 11.1716 15.6716 10.5 16.5 10.5H18C18.8284 10.5 19.5 11.1716 19.5 12ZM21.2627 6.73704C20.7884 6.2627 19.9945 6.2627 19.5202 6.73704L21.2627 4.99446C21.737 4.52011 21.737 3.72621 21.2627 3.25187L19.5202 5.49445C19.0459 5.9688 18.252 5.9688 17.7776 5.49445L21.2627 5.49445ZM12 23C12.8284 23 13.5 22.3284 13.5 21.5V20C13.5 19.1716 12.8284 18.5 12 18.5C11.1716 18.5 10.5 19.1716 10.5 20V21.5C10.5 22.3284 11.1716 23 12 23ZM3.73704 17.7778C3.2627 17.3034 2.4688 17.3034 1.99446 17.7778L3.73704 19.5204C4.21138 18.2521 4.21138 18.2521 3.73704 18.2521L1.99446 19.5204C3.2627 18.2521 3.2627 18.2521 3.73704 17.7778Z"/>
</svg>
